<?xml version="1.0" encoding="utf-8"?>
<!-- Generator: Adobe Illustrator 18.1.0, SVG Export Plug-In . SVG Version: 6.00 Build 0)  -->
<svg version="1.1" id="Слой_1" xmlns="http://www.w3.org/2000/svg" xmlns:xlink="http://www.w3.org/1999/xlink" x="0px" y="0px"
	 viewBox="0 109.965 841.89 375.35" enable-background="new 0 109.965 841.89 375.35" xml:space="preserve">
<g>
	
		<linearGradient id="SVGID_1_" gradientUnits="userSpaceOnUse" x1="259.2074" y1="416.4664" x2="259.2074" y2="-43.0616" gradientTransform="matrix(1 0 0 1 0 109.965)">
		<stop  offset="0" style="stop-color:#D0090F"/>
		<stop  offset="1" style="stop-color:#E58618"/>
	</linearGradient>
	<path fill="url(#SVGID_1_)" d="M312.765,351.349c-25.954-47.977-76.291-69.212-76.291-69.212s1.573-8.651,43.258,18.089
		c30.345,19.466,59.813,43.549,78.78,75.22c10.829-23.721,16.91-50.063,16.91-77.842c0-102.692-82.475-186.072-184.794-187.638
		c-56.756,43.342-66.732,121.777-8.423,162.732c66.066,46.404,74.717,92.02,52.696,143.143
		c-13.473,31.276-46.66,54.596-70.403,67.994c7.612,0.939,15.347,1.48,23.213,1.48c4.221,0,8.395-0.189,12.547-0.464
		c36.705-26.317,58.291-60.591,68.463-97.324c14.157-51.122-58.988-106.177-58.988-106.177s3.146-5.506,14.943,1.573
		c11.798,7.078,80.223,58.201,78.65,115.615c-0.705,25.718-9.774,45.889-19.572,60.344c17.245-10.292,32.677-23.282,45.766-38.37
		C328.234,397.836,323.966,372.055,312.765,351.349z"/>
	
		<linearGradient id="SVGID_2_" gradientUnits="userSpaceOnUse" x1="111.2019" y1="401.8367" x2="111.2019" y2="-33.4258" gradientTransform="matrix(1 0 0 1 0 109.965)">
		<stop  offset="0" style="stop-color:#D0090F"/>
		<stop  offset="1" style="stop-color:#E58618"/>
	</linearGradient>
	<path fill="url(#SVGID_2_)" d="M219.172,368.652c22.022-69.999-74.718-93.594-102.245-156.514
		c-15.872-36.277,1.197-71.48,18.5-94.81c-12.81,3.709-25.07,8.708-36.594,14.915c-30.587,98.63,54.273,140.455,54.273,140.455
		c3.146,0.786-7.865,0-7.865,0c-67.221-30.133-85.32-82.423-90.201-107.884c-6.432,6.426-12.398,13.318-17.848,20.619
		c25.874,53.688,92.319,88.838,92.319,88.838l-9.438,0.786c-38.307-12.769-74.033-42.577-97.864-66.054
		C8.049,235.398,0,265.558,0,297.605c0,79.962,50.02,148.203,120.46,175.253C155.601,450.617,205.348,412.59,219.172,368.652z"/>
</g>
<g>
	<path fill="#1E1C31" d="M573.302,203.963l24.931,6.044c-2.641,6.171-5.351,12.084-8.123,17.751h61.011v23.045h-73.284
		c-4.658,7.803-9.509,14.918-14.544,21.339h73.662v21.909c-27.072,20.523-45.458,36.892-55.152,49.108
		c-4.658,5.163-7.053,10.009-7.176,14.541c0,5.163,5.097,7.746,15.299,7.746h18.133c12.211,0,18.695-5.039,19.449-15.11
		c1.517-10.198,2.518-18.51,3.026-24.931c9.44,3.526,17.501,6.106,24.177,7.742c-1.64,12.342-3.781,23.233-6.421,32.677
		c-3.526,14.102-15.368,21.151-35.51,21.151h-23.045c-25.932,0-38.906-9.632-38.906-28.896c0-7.426,2.71-14.856,8.123-22.286
		c8.185-11.457,22.352-24.993,42.494-40.608h-47.029v-23.041h5.482c-4.281-3.904-8.631-7.615-13.035-11.141v68.934H522.31v11.334
		h25.308v22.664H522.31v27.387h-24.554v-27.387h-28.519v-22.664h28.519v-11.334H473.21v-78.755h24.546v-10.956H469.05v-22.664
		h28.704v-12.843h24.554v12.843h28.334v22.664h-28.334v10.956h24.554C555.555,237.957,564.363,222.219,573.302,203.963z
		 M526.088,270.445h-32.107v11.33h32.107V270.445z M526.088,310.86v-11.518h-32.107v11.519h32.107V310.86z"/>
	<path fill="#1E1C31" d="M663.957,371.298l-4.912-28.138c7.053-1.89,13.982-3.715,20.781-5.478v-66.105h-18.702v-23.795h18.702
		v-42.686h24.169v42.686h18.133v23.796h-18.133v59.495c6.676-1.89,13.097-3.777,19.272-5.667
		c-0.762,12.716-1.009,21.593-0.762,26.629C702.486,358.455,682.967,364.877,663.957,371.298z M771.612,390.562v-48.538h-21.343
		v9.066h-23.037V233.614h44.38V204.34h23.799v29.274h44.38v117.099h-23.037v-8.689h-21.343v48.538H771.612z M750.269,277.433h21.343
		v-21.909h-21.343V277.433z M750.269,320.115h21.343v-21.909h-21.343V320.115z M816.755,255.523h-21.343v21.909h21.343V255.523z
		 M795.412,320.115h21.343v-21.909h-21.343V320.115z"/>
</g>
</svg>
