<?xml version="1.0" encoding="utf-8"?>
<!-- Generator: Adobe Illustrator 18.1.0, SVG Export Plug-In . SVG Version: 6.00 Build 0)  -->
<svg version="1.1" id="Слой_1" xmlns="http://www.w3.org/2000/svg" xmlns:xlink="http://www.w3.org/1999/xlink" x="0px" y="0px"
	 viewBox="0 0 841.89 595.28" enable-background="new 0 0 841.89 595.28" xml:space="preserve">
<g>
	
		<linearGradient id="SVGID_1_" gradientUnits="userSpaceOnUse" x1="397.1152" y1="191.5655" x2="448.5659" y2="191.5655" gradientTransform="matrix(1.05 0 0 -1.05 123.305 625.0477)">
		<stop  offset="0" style="stop-color:#D0090F"/>
		<stop  offset="1" style="stop-color:#E58618"/>
	</linearGradient>
	<path fill="url(#SVGID_1_)" d="M567.289,450.914c1.155,0,2.329-0.072,3.512-0.222c12.039-1.517,21.76-11.239,23.279-23.278
		c2.077-16.484-10.717-30.523-26.791-30.523c-1.154,0-2.327,0.071-3.511,0.222c-12.039,1.516-21.76,11.238-23.278,23.278
		C538.422,436.876,551.216,450.914,567.289,450.914z M551.547,421.783c0.883-7.011,6.613-12.741,13.625-13.625
		c0.707-0.089,1.42-0.134,2.12-0.134c4.555,0,8.898,1.961,11.915,5.383c3.059,3.466,4.417,7.948,3.828,12.615
		c-0.883,7.011-6.613,12.742-13.624,13.626c-0.709,0.089-1.421,0.134-2.121,0.134c-4.556,0-8.9-1.962-11.917-5.383
		C552.317,430.932,550.958,426.452,551.547,421.783z"/>
	
		<linearGradient id="SVGID_2_" gradientUnits="userSpaceOnUse" x1="396.0897" y1="376.864" x2="405.5657" y2="376.864" gradientTransform="matrix(1.05 0 0 -1.05 123.305 625.0477)">
		<stop  offset="0" style="stop-color:#D0090F"/>
		<stop  offset="1" style="stop-color:#E58618"/>
	</linearGradient>
	<circle fill="url(#SVGID_2_)" cx="544.177" cy="229.338" r="4.975"/>
	
		<linearGradient id="SVGID_3_" gradientUnits="userSpaceOnUse" x1="434.2707" y1="376.864" x2="443.7487" y2="376.864" gradientTransform="matrix(1.05 0 0 -1.05 123.305 625.0477)">
		<stop  offset="0" style="stop-color:#D0090F"/>
		<stop  offset="1" style="stop-color:#E58618"/>
	</linearGradient>
	<circle fill="url(#SVGID_3_)" cx="584.268" cy="229.338" r="4.976"/>
	
		<linearGradient id="SVGID_4_" gradientUnits="userSpaceOnUse" x1="404.851" y1="343.8217" x2="435.8783" y2="343.8217" gradientTransform="matrix(1.05 0 0 -1.05 123.305 625.0477)">
		<stop  offset="0" style="stop-color:#D0090F"/>
		<stop  offset="1" style="stop-color:#E58618"/>
	</linearGradient>
	<path fill="url(#SVGID_4_)" d="M549.961,264.974c4.615,2.262,9.634,3.399,14.658,3.399c4.367,0,8.736-0.858,12.853-2.579
		l1.797-0.751c1.416-0.592,2.089-2.222,1.495-3.64c-0.593-1.42-2.226-2.086-3.641-1.496l-1.797,0.752
		c-7.38,3.086-15.739,2.834-22.918-0.682c-1.381-0.676-3.046-0.103-3.723,1.275C548.01,262.632,548.58,264.299,549.961,264.974z"/>
	
		<linearGradient id="SVGID_5_" gradientUnits="userSpaceOnUse" x1="383.7068" y1="393.8474" x2="403.5562" y2="393.8474" gradientTransform="matrix(1.05 0 0 -1.05 123.305 625.0477)">
		<stop  offset="0" style="stop-color:#D0090F"/>
		<stop  offset="1" style="stop-color:#E58618"/>
	</linearGradient>
	<path fill="url(#SVGID_5_)" d="M528.982,217.204c0.686,0,1.372-0.251,1.909-0.758l0.857-0.807
		c3.284-3.096,7.742-4.624,12.245-4.197c1.579,0.142,2.891-0.975,3.036-2.505c0.148-1.53-0.973-2.89-2.503-3.036
		c-6.109-0.574-12.145,1.493-16.594,5.69l-0.857,0.807c-1.119,1.054-1.171,2.816-0.117,3.934
		C527.506,216.911,528.242,217.204,528.982,217.204z"/>
	
		<linearGradient id="SVGID_6_" gradientUnits="userSpaceOnUse" x1="435.3536" y1="393.8315" x2="454.8141" y2="393.8315" gradientTransform="matrix(1.05 0 0 -1.05 123.305 625.0477)">
		<stop  offset="0" style="stop-color:#D0090F"/>
		<stop  offset="1" style="stop-color:#E58618"/>
	</linearGradient>
	<path fill="url(#SVGID_6_)" d="M583.129,210.936l1.176,0.036c4.515,0.133,8.752,2.207,11.628,5.691
		c0.55,0.666,1.348,1.011,2.148,1.011c0.623,0,1.251-0.209,1.769-0.637c1.187-0.978,1.355-2.731,0.376-3.918
		c-3.898-4.721-9.639-7.531-15.754-7.71l-1.174-0.035c-1.471-0.075-2.822,1.16-2.868,2.697
		C580.385,209.609,581.594,210.89,583.129,210.936z"/>
	
		<linearGradient id="SVGID_7_" gradientUnits="userSpaceOnUse" x1="310.6324" y1="299.4715" x2="523.1217" y2="299.4715" gradientTransform="matrix(1.05 0 0 -1.05 123.305 625.0477)">
		<stop  offset="0" style="stop-color:#D0090F"/>
		<stop  offset="1" style="stop-color:#E58618"/>
	</linearGradient>
	<path fill="url(#SVGID_7_)" d="M610.282,320.722c-3.97-0.166-8.073-0.336-12.28-0.649v-24.194
		c7.08-7.773,10.955-17.883,10.955-28.686c0.069-1,1.17-4.319,1.829-5.718c1.663-1.988,2.279-5.128,3.008-10.377
		c1.547-11.171,4.007-21.7,7.313-31.303c2.214-6.254,3.347-12.907,3.347-19.726c0-6.223-1.009-12.342-3.084-18.705
		c-0.32-0.981-0.894-1.86-1.664-2.545c-1.844-1.642-4.25-3.276-6.889-4.839c0.426-0.339,0.811-0.742,1.135-1.203
		c1.387-1.968,1.421-4.585,0.085-6.589c-9.374-14.064-24.448-23.648-41.354-26.297c-0.298-0.047-0.601-0.07-0.902-0.07
		c-0.433,0-0.863,0.047-1.287,0.144c-3.569,0.809-8.513,2.59-12.898,4.175c-0.299-0.728-0.744-1.399-1.324-1.964
		c-1.099-1.072-2.565-1.655-4.069-1.655c-0.409,0-0.822,0.043-1.231,0.131c-27.918,6.03-48.181,30.97-48.181,59.302
		c0,6.893,1.132,13.585,3.364,19.89c3.48,10.1,5.938,20.61,7.289,31.19c0.826,5.965,1.485,8.818,3.079,10.62
		c0.599,1.251,1.6,4.466,1.652,5.577c0,10.626,3.893,20.744,11.007,28.676l-0.773,24.521c-6.084,1.294-22.067,1.41-28.54,1.456
		c-5.063,0.037-7.774,0.064-9.273,0.234c-41.506,4.571-41.306,37.828-41.096,73.037l0.035,8.617v22.258
		c0,7.711,6.274,13.984,13.985,13.984h25.987v17.946c0,12.916,10.508,23.424,23.424,23.424H621.66
		c12.915,0,23.424-10.507,23.424-23.424v-17.946h13.519c7.71,0,13.984-6.274,13.984-13.984v-22.258
		C672.585,328.739,649.047,322.341,610.282,320.722z M535.192,267.209c0-2.773-1.464-9.783-4.289-14.544
		c-0.156-0.68-0.418-1.988-0.68-4.342c-1.412-10.672-4.029-21.762-8.319-34.789c-1.411-4.343-2.144-8.894-2.144-13.497
		c0.052-16.844,9.939-32.015,24.691-39.287c1.936,1.621,4.499,2.616,7.22,2.616c2.773,0,5.231-0.889,11.143-3.035
		c2.878-1.098,6.697-2.459,9.365-3.243c2.563,0.524,5.075,1.256,7.427,2.197l-1.046,7.899c-1.151,8.422,5.285,11.404,11.561,14.334
		c3.976,1.831,11.561,5.336,16.061,8.266c0.837,3.401,1.255,6.853,1.255,10.253c0,4.865-0.783,9.626-2.353,14.229
		c-3.767,10.882-6.487,22.495-8.108,34.579c-0.314,2.04-0.524,3.192-0.629,3.819c-2.876,4.761-4.287,11.771-4.287,14.544
		c0,6.853-2.669,13.34-7.482,18.256l-1.308,1.308l-4.34,1.884c-9.731,4.237-20.873,4.237-30.603,0l-4.395-1.884l-1.255-1.308
		C537.859,280.548,535.192,274.062,535.192,267.209z M545.236,323.81l0.89-29.4l0.051-0.628c5.545,2.407,11.508,3.61,17.421,3.61
		c5.963,0,11.927-1.202,17.472-3.61v28.563c0,4.708,2.197,8.893,5.703,11.562l-1.641,4.478c-1.242,10.264-9.883,9.352-20.22,9.487
		c-0.181,0.002-0.362,0.004-0.545,0.007c-10.39,0.138-19.267,1.226-20.729-9.062l-2.168-6.167
		C543.876,330.56,545.184,327.683,545.236,323.81z M506.682,387.11c0-0.523,0.418-0.941,0.941-0.941h30.079
		c2.302,0,4.447-1.308,5.494-3.401l5.44-10.934c0.105-0.158,0.314-0.314,0.524-0.314h36.201c0.209,0,0.418,0.156,0.524,0.314
		l5.44,10.934c1.047,2.093,3.14,3.401,5.44,3.401h30.132c0.524,0,0.942,0.418,0.942,0.941v72.559
		c-0.365,1.256-1.098,2.354-2.04,3.191H508.826c-1.099-0.889-1.831-2.093-2.144-3.505V387.11z"/>
</g>
<linearGradient id="SVGID_8_" gradientUnits="userSpaceOnUse" x1="177.2997" y1="376.864" x2="186.7777" y2="376.864" gradientTransform="matrix(1.05 0 0 -1.05 123.305 625.0477)">
	<stop  offset="0" style="stop-color:#D0090F"/>
	<stop  offset="1" style="stop-color:#E58618"/>
</linearGradient>
<circle fill="url(#SVGID_8_)" cx="314.447" cy="229.338" r="4.976"/>
<linearGradient id="SVGID_9_" gradientUnits="userSpaceOnUse" x1="215.4797" y1="376.865" x2="224.9578" y2="376.865" gradientTransform="matrix(1.05 0 0 -1.05 123.305 625.0477)">
	<stop  offset="0" style="stop-color:#D0090F"/>
	<stop  offset="1" style="stop-color:#E58618"/>
</linearGradient>
<circle fill="url(#SVGID_9_)" cx="354.536" cy="229.337" r="4.976"/>
<linearGradient id="SVGID_10_" gradientUnits="userSpaceOnUse" x1="186.0608" y1="352.0898" x2="217.0888" y2="352.0898" gradientTransform="matrix(1.05 0 0 -1.05 123.305 625.0477)">
	<stop  offset="0" style="stop-color:#D0090F"/>
	<stop  offset="1" style="stop-color:#E58618"/>
</linearGradient>
<path fill="url(#SVGID_10_)" d="M320.23,256.293c4.615,2.262,9.634,3.399,14.658,3.399c4.367,0,8.737-0.858,12.854-2.579
	l1.796-0.751c1.416-0.592,2.088-2.222,1.496-3.64c-0.594-1.42-2.228-2.086-3.641-1.496l-1.798,0.752
	c-7.38,3.086-15.739,2.834-22.917-0.683c-1.383-0.676-3.047-0.103-3.724,1.275C318.278,253.951,318.851,255.618,320.23,256.293z"/>
<linearGradient id="SVGID_11_" gradientUnits="userSpaceOnUse" x1="164.9167" y1="393.8464" x2="184.7653" y2="393.8464" gradientTransform="matrix(1.05 0 0 -1.05 123.305 625.0477)">
	<stop  offset="0" style="stop-color:#D0090F"/>
	<stop  offset="1" style="stop-color:#E58618"/>
</linearGradient>
<path fill="url(#SVGID_11_)" d="M302.016,215.639c3.287-3.096,7.742-4.624,12.245-4.197c1.579,0.142,2.891-0.975,3.036-2.505
	c0.148-1.53-0.973-2.89-2.503-3.036c-6.109-0.574-12.145,1.493-16.592,5.69l-0.857,0.807c-1.121,1.054-1.172,2.816-0.117,3.934
	c0.546,0.581,1.283,0.874,2.023,0.874c0.686,0,1.374-0.251,1.909-0.758L302.016,215.639z"/>
<linearGradient id="SVGID_12_" gradientUnits="userSpaceOnUse" x1="216.5635" y1="393.8315" x2="236.0242" y2="393.8315" gradientTransform="matrix(1.05 0 0 -1.05 123.305 625.0477)">
	<stop  offset="0" style="stop-color:#D0090F"/>
	<stop  offset="1" style="stop-color:#E58618"/>
</linearGradient>
<path fill="url(#SVGID_12_)" d="M353.399,210.936l1.175,0.036c4.515,0.133,8.752,2.207,11.628,5.691
	c0.552,0.666,1.348,1.011,2.148,1.011c0.623,0,1.252-0.209,1.769-0.637c1.187-0.978,1.355-2.731,0.376-3.918
	c-3.898-4.721-9.639-7.531-15.753-7.71l-1.175-0.035c-1.471-0.075-2.822,1.16-2.868,2.697
	C350.653,209.607,351.862,210.89,353.399,210.936z"/>
<linearGradient id="SVGID_13_" gradientUnits="userSpaceOnUse" x1="-43.1303" y1="415.946" x2="93.4187" y2="415.946" gradientTransform="matrix(1.05 0 0 -1.05 123.305 625.0477)">
	<stop  offset="0" style="stop-color:#D0090F"/>
	<stop  offset="1" style="stop-color:#E58618"/>
</linearGradient>
<path fill="url(#SVGID_13_)" d="M210.7,262.705v-57.548c-6.372-10.224-22.63-28.481-51.029-11.55
	c-76.949,45.867-81.653-61.246-81.653-61.246s40.342,22.361,69.503-3.884c24.682-22.213,54.576-9.615,63.181-5.216v-9.364h10.693
	v148.809H210.7V262.705z"/>
<linearGradient id="SVGID_14_" gradientUnits="userSpaceOnUse" x1="64.7707" y1="235.1765" x2="118.9518" y2="235.1765" gradientTransform="matrix(1.05 0 0 -1.05 123.305 625.0477)">
	<stop  offset="0" style="stop-color:#D0090F"/>
	<stop  offset="1" style="stop-color:#E58618"/>
</linearGradient>
<path fill="url(#SVGID_14_)" d="M245.642,439.834h-51.764c-1.415,0-2.563-1.148-2.563-2.563V318.834
	c0-1.351,1.095-2.447,2.447-2.447h51.997c1.351,0,2.447,1.095,2.447,2.447v118.436C248.205,438.686,247.057,439.834,245.642,439.834
	z"/>
<linearGradient id="SVGID_15_" gradientUnits="userSpaceOnUse" x1="123.0967" y1="319.1305" x2="303.9217" y2="319.1305" gradientTransform="matrix(1.05 0 0 -1.05 123.305 625.0477)">
	<stop  offset="0" style="stop-color:#D0090F"/>
	<stop  offset="1" style="stop-color:#E58618"/>
</linearGradient>
<path fill="url(#SVGID_15_)" d="M380.08,320.73c-3.963-0.117-8.043-0.35-12.237-0.699v-24.123
	c7.108-7.808,10.954-17.946,10.954-28.667c0.117-1.049,1.167-4.312,1.864-5.711c1.633-2.098,2.217-5.127,3.03-10.487
	c1.516-11.071,3.963-21.675,7.226-31.231c2.213-6.294,3.38-12.936,3.38-19.695c0-6.294-1.05-12.352-3.03-18.763
	c-0.35-0.931-0.933-1.864-1.749-2.563c-1.747-1.632-4.194-3.263-6.873-4.778c0.464-0.35,0.814-0.816,1.163-1.282
	c1.4-1.864,1.4-4.544,0.117-6.526c-9.44-14.101-24.47-23.657-41.37-26.337h-0.93c-0.466,0-0.817,0-1.283,0.117
	c-3.613,0.816-8.507,2.564-12.934,4.195c-0.233-0.815-0.7-1.399-1.283-1.981c-1.05-1.048-2.563-1.632-4.08-1.632
	c-0.348,0-0.814,0-1.163,0.117c-27.97,5.943-48.247,30.882-48.247,59.317c0,6.204,0.95,12.22,2.763,17.96
	c3.192,10.111,6.264,20.312,7.658,30.823c0.992,7.491,1.506,10.907,3.333,12.864c0.581,1.282,1.631,4.428,1.631,5.594
	c0,10.604,3.963,20.743,11.07,28.667l-0.814,24.473c-6.06,1.399-22.027,1.514-28.553,1.514c-5.011,0-7.807,0-9.321,0.233
	c-2.814,0.308-5.4,0.773-7.841,1.337c5.497,4.969,9.016,12.083,9.016,20.078v68.179c0,15.532,12.58,28.129,28.112,28.149
	l138.803,0.181c7.667-0.028,13.936-6.3,13.936-13.975v-22.258C442.425,328.771,418.884,322.361,380.08,320.73z M355.023,338.443
	c-1.28,10.255-9.904,9.323-20.277,9.44h-0.583c-10.37,0.117-19.227,1.282-20.627-9.09l-2.213-6.176
	c2.447-2.098,3.73-4.895,3.73-8.857l0.933-29.367v-0.583c5.593,2.331,11.536,3.612,17.48,3.612c5.941,0,11.884-1.282,17.481-3.612
	v28.551c0,4.661,2.213,8.857,5.71,11.536L355.023,338.443z M366.21,252.674c-2.914,4.778-4.31,11.77-4.31,14.567
	c0,6.875-2.68,13.285-7.46,18.18l-1.28,1.399l-4.43,1.864c-9.671,4.195-20.86,4.195-30.531,0l-4.43-1.864l-1.28-1.399
	c-4.78-4.895-7.46-11.304-7.46-18.18c0-2.797-1.397-9.789-4.31-14.567c-0.117-0.7-0.35-1.981-0.7-4.312
	c-1.4-10.721-3.963-21.792-8.273-34.843c-1.4-4.311-2.097-8.857-2.097-13.518c0-9.03,8.316-8.141,13.271-15.263
	c4.254-6.115,26.611,26.786,73.08,5.009c0.817,3.495,1.28,6.875,1.28,10.255c0,4.894-0.814,9.673-2.33,14.217
	c-3.728,10.955-6.524,22.491-8.156,34.611C366.56,250.925,366.327,252.09,366.21,252.674z"/>
<linearGradient id="SVGID_16_" gradientUnits="userSpaceOnUse" x1="73.5226" y1="322.9595" x2="107.4065" y2="322.9595" gradientTransform="matrix(1.05 0 0 -1.05 123.305 625.0477)">
	<stop  offset="0" style="stop-color:#D0090F"/>
	<stop  offset="1" style="stop-color:#E58618"/>
</linearGradient>
<path fill="url(#SVGID_16_)" d="M237.795,267.087c-1.4-9.093-9.189-16.077-18.672-16.077h-5.157
	c-10.473,0-18.962,8.49-18.962,18.964v23.888c0,4.079,1.315,7.835,3.505,10.927c1.4,9.092,9.189,16.077,18.672,16.077h5.157
	c10.474,0,18.964-8.49,18.964-18.963v-23.889C241.302,273.935,239.988,270.18,237.795,267.087z M220.41,304.774h-2.783
	c-5.112,0-9.313-3.766-10.068-8.669c-1.18-1.668-1.889-3.693-1.889-5.893v-12.882c0-5.648,4.578-10.226,10.225-10.226h2.781
	c12.218,0,10.216,12.889,10.216,12.889c-0.182,4.188-5.59-1.151-10.581-0.503c-3.668,0.477-3.714,6.309,0,5.827
	c5.326-0.692,8.832,1.308,12.325,4.402v4.829C230.635,300.195,226.058,304.774,220.41,304.774z"/>
</svg>
