<?xml version="1.0" encoding="utf-8"?>
<!-- Generator: Adobe Illustrator 18.1.0, SVG Export Plug-In . SVG Version: 6.00 Build 0)  -->
<svg version="1.1" id="Слой_1" xmlns="http://www.w3.org/2000/svg" xmlns:xlink="http://www.w3.org/1999/xlink" x="0px" y="0px"
	 viewBox="0 0 841.89 595.28" enable-background="new 0 0 841.89 595.28" xml:space="preserve">
<linearGradient id="SVGID_1_" gradientUnits="userSpaceOnUse" x1="9.568300e-006" y1="311.815" x2="566.93" y2="311.815" gradientTransform="matrix(1.05 0 0 -1.05 123.305 625.0477)">
	<stop  offset="0" style="stop-color:#D0090F"/>
	<stop  offset="1" style="stop-color:#E58618"/>
</linearGradient>
<path fill="url(#SVGID_1_)" d="M420.945,0C252.714,0,117.082,139.571,123.525,309.236
	c5.859,154.265,131.558,279.964,285.823,285.823c169.665,6.444,309.236-129.189,309.236-297.419
	C718.585,133.258,585.327,0,420.945,0L420.945,0z M420.945,548.652c-144.52,0-260.514-122.134-250.397-268.816
	c8.537-123.777,108.816-224.057,232.593-232.593C549.824,37.126,671.957,153.12,671.957,297.64
	C671.957,436.27,559.575,548.652,420.945,548.652L420.945,548.652z"/>
<linearGradient id="SVGID_2_" gradientUnits="userSpaceOnUse" x1="102.8759" y1="370.2835" x2="259.781" y2="370.2835" gradientTransform="matrix(1.05 0 0 -1.05 123.305 625.0477)">
	<stop  offset="0" style="stop-color:#D0090F"/>
	<stop  offset="1" style="stop-color:#E58618"/>
</linearGradient>
<path fill="url(#SVGID_2_)" d="M396.077,236.247c0-46.56-38.628-84.098-85.585-82.314c-42.404,1.611-77.495,36.701-79.105,79.105
	c-1.783,46.957,35.755,85.585,82.314,85.585l0,0C359.196,318.622,396.077,281.742,396.077,236.247z M279.956,248.396
	c-9.015-27.247,13.792-52.261,40.633-47.252c13.851,2.584,25.182,13.618,28.057,27.411c4.815,23.103-12.69,43.44-34.945,43.44l0,0
	C298.619,271.995,284.694,262.714,279.956,248.396z"/>
<linearGradient id="SVGID_3_" gradientUnits="userSpaceOnUse" x1="311.3169" y1="370.2835" x2="459.8831" y2="370.2835" gradientTransform="matrix(1.05 0 0 -1.05 123.305 625.0477)">
	<stop  offset="0" style="stop-color:#D0090F"/>
	<stop  offset="1" style="stop-color:#E58618"/>
</linearGradient>
<path fill="url(#SVGID_3_)" d="M528.188,195.06c-34.546,0-64.125,21.265-76.362,51.42c-6.008,14.806,5.296,30.956,21.274,30.956
	h2.238c8.899,0,16.443-5.718,19.91-13.915c5.426-12.83,18.132-21.833,32.939-21.833c14.807,0,27.512,9.003,32.939,21.833
	c3.467,8.196,11.011,13.915,19.91,13.915h2.238c15.978,0,27.282-16.15,21.274-30.956
	C592.313,216.324,562.735,195.059,528.188,195.06z"/>
<linearGradient id="SVGID_4_" gradientUnits="userSpaceOnUse" x1="176.6453" y1="205.979" x2="390.2847" y2="205.979" gradientTransform="matrix(1.05 0 0 -1.05 123.305 625.0477)">
	<stop  offset="0" style="stop-color:#D0090F"/>
	<stop  offset="1" style="stop-color:#E58618"/>
</linearGradient>
<path fill="url(#SVGID_4_)" d="M420.945,419.649c-32.102,0-59.038-22.118-66.398-51.948c-2.429-9.842-11.733-16.44-21.87-16.44
	h-1.114c-14.942,0-25.752,14.135-22.047,28.611c12.718,49.68,57.784,86.405,111.429,86.405s98.71-36.725,111.429-86.405
	c3.706-14.475-7.105-28.611-22.047-28.611h-1.114c-10.137,0-19.441,6.598-21.87,16.44
	C479.983,397.53,453.047,419.649,420.945,419.649L420.945,419.649z"/>
</svg>
