<?xml version="1.0" encoding="utf-8"?>
<!-- Generator: Adobe Illustrator 18.1.0, SVG Export Plug-In . SVG Version: 6.00 Build 0)  -->
<svg version="1.1" id="Слой_1" xmlns="http://www.w3.org/2000/svg" xmlns:xlink="http://www.w3.org/1999/xlink" x="0px" y="0px"
	 viewBox="0 0 841.89 595.28" enable-background="new 0 0 841.89 595.28" xml:space="preserve">
<g>
	
		<linearGradient id="SVGID_1_" gradientUnits="userSpaceOnUse" x1="331.1605" y1="324.892" x2="484.5435" y2="324.892" gradientTransform="matrix(1.05 0 0 -1.05 123.305 625.0477)">
		<stop  offset="0" style="stop-color:#D0090F"/>
		<stop  offset="1" style="stop-color:#E58618"/>
	</linearGradient>
	<path fill="url(#SVGID_1_)" d="M622.005,273.841H481.093c-5.646,0-10.067,4.421-10.067,10.069c0,5.647,4.422,10.068,10.067,10.068
		h140.912c5.65,0,10.074-4.422,10.074-10.068C632.079,278.261,627.655,273.841,622.005,273.841z"/>
	
		<linearGradient id="SVGID_2_" gradientUnits="userSpaceOnUse" x1="331.1605" y1="271.211" x2="484.5435" y2="271.211" gradientTransform="matrix(1.05 0 0 -1.05 123.305 625.0477)">
		<stop  offset="0" style="stop-color:#D0090F"/>
		<stop  offset="1" style="stop-color:#E58618"/>
	</linearGradient>
	<path fill="url(#SVGID_2_)" d="M622.005,330.206H481.093c-5.646,0-10.067,4.422-10.067,10.069c0,5.646,4.422,10.068,10.067,10.068
		h140.912c5.65,0,10.074-4.423,10.074-10.068C632.079,334.628,627.655,330.206,622.005,330.206z"/>
	
		<linearGradient id="SVGID_3_" gradientUnits="userSpaceOnUse" x1="143.2255" y1="270.246" x2="323.4475" y2="270.246" gradientTransform="matrix(1.05 0 0 -1.05 123.305 625.0477)">
		<stop  offset="0" style="stop-color:#D0090F"/>
		<stop  offset="1" style="stop-color:#E58618"/>
	</linearGradient>
	<path fill="url(#SVGID_3_)" d="M283.762,408.734h169.095c5.646,0,10.07-4.423,10.07-10.07V283.91
		c0-5.648-4.424-10.068-10.07-10.068H283.762c-5.648,0-10.07,4.421-10.07,10.068v114.754
		C273.693,404.311,278.114,408.734,283.762,408.734z M442.844,388.596h-15.139l15.139-15.887V388.596z M442.844,356.05
		l-31.012,32.546h-17.797l48.809-51.372V356.05z M442.844,320.491l-64.702,68.104H361.78l81.066-86.646v18.542H442.844z
		 M434.536,293.979l-88.523,94.617h-18.122l88.532-94.617H434.536z M400.659,293.979l-88.532,94.617h-16.97l88.532-94.617H400.659z
		 M293.832,293.979h13.822l-13.822,14.77V293.979z M293.832,325.595l29.586-31.617h16.229l-45.816,48.971v-17.355H293.832z
		 M293.832,359.798l61.582-65.82h12.511l-74.093,79.186V359.798z"/>
	
		<linearGradient id="SVGID_4_" gradientUnits="userSpaceOnUse" x1="143.2255" y1="411.1965" x2="484.5425" y2="411.1965" gradientTransform="matrix(1.05 0 0 -1.05 123.305 625.0477)">
		<stop  offset="0" style="stop-color:#D0090F"/>
		<stop  offset="1" style="stop-color:#E58618"/>
	</linearGradient>
	<path fill="url(#SVGID_4_)" d="M622.005,142.944H283.762c-5.648,0-10.07,4.475-10.07,10.069v80.553
		c0,5.648,4.422,10.069,10.07,10.069h338.242c5.65,0,10.074-4.421,10.074-10.069v-80.553
		C632.079,147.419,627.655,142.944,622.005,142.944z"/>
	
		<linearGradient id="SVGID_5_" gradientUnits="userSpaceOnUse" x1="143.2255" y1="175.317" x2="484.5425" y2="175.317" gradientTransform="matrix(1.05 0 0 -1.05 123.305 625.0477)">
		<stop  offset="0" style="stop-color:#D0090F"/>
		<stop  offset="1" style="stop-color:#E58618"/>
	</linearGradient>
	<path fill="url(#SVGID_5_)" d="M622.005,430.895H283.762c-5.648,0-10.07,4.423-10.07,10.068c0,5.647,4.422,10.069,10.07,10.069
		h338.242c5.65,0,10.074-4.422,10.074-10.069C632.079,435.318,627.655,430.895,622.005,430.895z"/>
	
		<linearGradient id="SVGID_6_" gradientUnits="userSpaceOnUse" x1="331.1605" y1="215.6015" x2="484.5435" y2="215.6015" gradientTransform="matrix(1.05 0 0 -1.05 123.305 625.0477)">
		<stop  offset="0" style="stop-color:#D0090F"/>
		<stop  offset="1" style="stop-color:#E58618"/>
	</linearGradient>
	<path fill="url(#SVGID_6_)" d="M622.005,388.596H481.093c-5.646,0-10.067,4.475-10.067,10.069c0,5.647,4.422,10.07,10.067,10.07
		h140.912c5.65,0,10.074-4.423,10.074-10.07C632.079,393.071,627.655,388.596,622.005,388.596z"/>
	
		<linearGradient id="SVGID_7_" gradientUnits="userSpaceOnUse" x1="-0.2575" y1="311.815" x2="567.1875" y2="311.815" gradientTransform="matrix(1.05 0 0 -1.05 123.305 625.0477)">
		<stop  offset="0" style="stop-color:#D0090F"/>
		<stop  offset="1" style="stop-color:#E58618"/>
	</linearGradient>
	<path fill="url(#SVGID_7_)" d="M718.167,451.27V104.804c0-25.329-20.507-45.936-45.711-45.936H235.47
		c-25.328,0-45.936,20.606-45.936,45.936v22.407H168.97c-25.328,0-45.936,20.606-45.936,45.936V459.18
		c0,6.349,1.362,11.927,3.088,16.446c8.085,34.861,39.226,59.635,75.982,59.635h428.523c3.324,0.759,6.711,1.15,10.076,1.15
		c43.092,0,78.152-35.059,78.152-78.153C718.855,455.912,718.623,453.57,718.167,451.27z M225.372,448.21
		c-1.226,2.024-1.808,4.207-1.439,6.872c0.212,1.013,0.212,2.185,0.212,3.41c0,1.011,0,1.385-0.212,2.822
		c-1.596,10.442-10.655,18.114-21.523,18.114h-0.214c-12.251-0.213-22.161-9.643-22.161-21.736c0-1.598-0.372-3.25-1.012-4.423
		V183.22h46.349C225.372,183.22,225.372,448.21,225.372,448.21z M242.473,470.371c1.814-1.81,3.041-4.421,3.041-7.245V114.761
		h416.765v344.316c0,0.8,0.214,1.599,0.214,2.239c-1.226,9.269-8.041,16.516-16.938,18.486c-0.962-0.373-2.186-0.586-3.409-0.586
		H238.425C240.076,476.393,241.462,473.409,242.473,470.371z"/>
</g>
</svg>
